<svg xmlns="http://www.w3.org/2000/svg" width="240.15" height="57.175" viewBox="0 0 240.15 57.175">
  <g id="Group_20" data-name="Group 20" transform="translate(-167 -3991.825)">
    <path id="Path_13" data-name="Path 13" d="M13.725,26.825v-13.7h8.7v-2.4H2.675v2.4h8.45v13.7H1.35V29.15H23.725V26.825Zm19.95-.6a20.915,20.915,0,0,1-7.15,2.325,9.919,9.919,0,0,1,1.4,1.7,21.3,21.3,0,0,0,7.45-3.225Zm6.3,1.025c2.275.875,5.325,2.2,6.875,2.975l1.55-1.35c-1.675-.8-4.725-2-6.925-2.8ZM41.3,14.15a19.359,19.359,0,0,1-1.4,2.225l.9.275H33.975l1.125-.3a10.06,10.06,0,0,0-1.175-2.2Zm-2.7,9.075v-1.5h7.675v-1.75H38.6v-1.5h8.85V16.65h-5.3c.5-.575,1.075-1.25,1.625-2l-1.95-.5h6.55V12.3H44.8a39.117,39.117,0,0,0,2.075-3.4l-2.4-.625a21.789,21.789,0,0,1-1.75,3.7l.975.325H40.975V8h-2.2v4.3H36.3V8H34.125v4.3h-2.8l1.325-.5a17.377,17.377,0,0,0-2-3.575l-2.025.7A18.743,18.743,0,0,1,30.45,12.3H26.725v1.85H33.1l-1.45.35a13.477,13.477,0,0,1,1.1,2.15H27.725v1.825h8.6v1.5H28.95v1.75h7.375v1.5h-9.7v1.95h9.7v5.8H38.6v-5.8h9.85v-1.95ZM59.175,18.8l-2.575.675v-4.4h2.625V12.9H56.6V8.025H54.325v4.9H51.25v2.15h3.075V20.1c-1.25.3-2.4.575-3.35.8l.6,2.225c.875-.225,1.775-.475,2.75-.75V28.3c0,.35-.125.475-.5.475-.3.025-1.35.025-2.45,0a9.009,9.009,0,0,1,.7,2.1,8.593,8.593,0,0,0,3.55-.4c.725-.35.975-.975.975-2.175V21.725l2.85-.825Zm10.8.65a14.867,14.867,0,0,1-3.65,5.15,15.8,15.8,0,0,1-3.35-5.15Zm1.45-2.2-.4.075h-3.55V13.9H73.25V11.775H67.475V8.025h-2.3v3.75h-5.6V13.9h5.6v3.425h-5.15V19.45h1l-.325.1a20.2,20.2,0,0,0,3.875,6.475A20.065,20.065,0,0,1,58.15,28.85a9.917,9.917,0,0,1,1.25,2.1,21.15,21.15,0,0,0,6.825-3.325A17.388,17.388,0,0,0,72.7,31a8.248,8.248,0,0,1,1.5-1.975,17.507,17.507,0,0,1-6.15-2.9,18.175,18.175,0,0,0,4.875-8.275ZM98.6,9.975H92.7v2.05h5.9ZM92.475,12.5A15.906,15.906,0,0,0,90.3,9.35l-1.45.775a17.362,17.362,0,0,1,2.1,3.275ZM80.225,8.05A17.065,17.065,0,0,1,76,12.975,13.733,13.733,0,0,1,77.25,14.7a24.184,24.184,0,0,0,5.1-5.9Zm3.15,9.55c-.025,4.25-.2,6.875-1.7,8.5a4.66,4.66,0,0,1,1.175,1.375c1.925-1.925,2.2-5.125,2.225-9.875ZM91.3,25.075c-.2,0-.225-.2-.225-.825V17.6h-1.7v6.6c0,1.875.3,2.525,1.975,2.525h.7a3.041,3.041,0,0,0,1-.125c-.05-.4-.125-1.2-.175-1.65a2.963,2.963,0,0,1-.8.125Zm7.675-9.25H92.15v-1.85H88.2V8.2H86.15v5.775h-3.4l.075-.175-2.1-.675A20.561,20.561,0,0,1,75.55,20.15a11.126,11.126,0,0,1,1.3,2.1,22.311,22.311,0,0,0,1.85-1.9V31h2.15V17.4a31.783,31.783,0,0,0,1.8-3.225v1.95h3.5V30.9H88.2V16.125h3.9v1.8h2.55V28.1c0,.3-.1.375-.45.4-.325,0-1.45,0-2.6-.025a8.861,8.861,0,0,1,.675,2.25A8.612,8.612,0,0,0,95.9,30.3c.75-.35.95-1,.95-2.2V17.925h2.1Zm8.8,10.025h-2.9V18.975h2.9ZM101.3,11.4h2.9c-.65,3.55-1.725,6.85-3.375,9.075a14.344,14.344,0,0,1,.925,2.625,14.887,14.887,0,0,0,1.175-1.725v8.45h1.95V27.9h4.9v-11H104.95a42.2,42.2,0,0,0,1.45-5.5h3.75V9.3H101.3Zm14.225,6.8V11.5h3.525v6.7Zm8.45,0h-2.7V11.5h2.2V9.325h-12.05V11.5h1.925v6.7h-2.6v2.2h2.575c-.125,3.2-.7,6.875-3.075,9.35a12.267,12.267,0,0,1,1.775,1.35c2.7-2.8,3.35-6.95,3.475-10.7h3.55V30.975h2.225V20.4h2.7Zm5.35-5.75h4.125c-.375,2.7-1.45,4.125-6.225,4.95a6.007,6.007,0,0,1,1.25,1.875c5.475-1.1,6.925-3.175,7.425-6.825h3.2v3.725c0,2.05.55,2.85,2.875,2.85h3.7a9.623,9.623,0,0,0,2.1-.15c-.075-.525-.125-1.35-.175-1.95a12.39,12.39,0,0,1-2.025.15h-3.45c-.6,0-.725-.25-.725-.875V12.45h4.4v2.425h2.45v-4.5h-9.175c-.25-.75-.625-1.675-.925-2.4l-2.425.425c.225.6.475,1.325.675,1.975H127V15.1h2.325Zm14.75,15.775c-.65,0-.775-.125-.775-.825V21.075h-6.1v-2.9h-2.425v2.9H127.9v2.15h6.6c-.625,2.125-2.625,4.375-8.35,5.875a11.88,11.88,0,0,1,1.625,2c6.7-1.825,8.75-4.925,9.25-7.875h3.85V27.4c0,2.425.65,3.1,2.825,3.1h2.625c1.95,0,2.575-1,2.825-4.925a6.725,6.725,0,0,1-2.2-.975c-.1,3.15-.225,3.625-.875,3.625Zm27.4-15.175V15.5h-9.65V13.05Zm-9.825,4.475h10.075v-1.9H173.7v-4.6h-5.45a17.476,17.476,0,0,0-1.525-3.2l-2.15.625a19.883,19.883,0,0,1,1.175,2.575h-6.075v4.6h1.975ZM157.9,8.95l-.325.1H152V30.925h2.05v-19.8h2.725c-.45,1.65-1.125,3.75-1.75,5.4a7.18,7.18,0,0,1,2.05,4.825,2.112,2.112,0,0,1-.5,1.625,1.3,1.3,0,0,1-.725.2,11.349,11.349,0,0,1-1.275-.025,5.074,5.074,0,0,1,.525,2.025c.575,0,1.2,0,1.65-.05a2.924,2.924,0,0,0,1.35-.5c.725-.55,1.025-1.6,1.025-3.05A8.128,8.128,0,0,0,157.1,16.25c.75-1.925,1.625-4.375,2.325-6.425Zm12.275,19.725c-.475,0-.55-.1-.55-.775V22.025h4.2V19.95H159.75v2.075H163c-.325,3.525-1.25,5.775-5.4,7.1a6.437,6.437,0,0,1,1.325,1.85c4.725-1.65,5.925-4.575,6.325-8.95h2.175v5.9c0,2.1.45,2.725,2.375,2.725h2.025c1.6,0,2.125-.85,2.325-4.2a5.219,5.219,0,0,1-1.95-.85c-.05,2.675-.15,3.075-.625,3.075Z" transform="translate(233 3984)" fill="#a6a6a6"/>
    <path id="Path_15" data-name="Path 15" d="M1.164,14H2.556V5.168H1.164Zm3.588,0H6.12V9.32a2.254,2.254,0,0,1,1.62-.9c.78,0,1.116.456,1.116,1.6V14h1.38V9.848c0-1.68-.624-2.616-2.028-2.616a3.145,3.145,0,0,0-2.184,1.08H5.988L5.88,7.4H4.752Zm9.768.156a2.766,2.766,0,0,0,1.92-.9h.036L16.6,14h1.128V4.436h-1.38V6.884l.06,1.092a2.546,2.546,0,0,0-1.776-.744c-1.476,0-2.832,1.332-2.832,3.48C11.8,12.9,12.864,14.156,14.52,14.156Zm.324-1.14c-1.032,0-1.62-.828-1.62-2.328,0-1.428.744-2.3,1.668-2.3a2.07,2.07,0,0,1,1.452.6v3.228A1.94,1.94,0,0,1,14.844,13.016Zm6.888,1.14A2.767,2.767,0,0,0,23.892,13h.036l.108,1h1.128V7.4h-1.38v4.584c-.552.7-.972.984-1.584.984-.78,0-1.1-.444-1.1-1.584V7.4h-1.38v4.152C19.716,13.232,20.328,14.156,21.732,14.156Zm7.3,0c1.632,0,2.508-.9,2.508-2,0-1.248-1.02-1.656-1.944-2-.72-.264-1.4-.48-1.4-1.044,0-.456.336-.816,1.056-.816a2.47,2.47,0,0,1,1.476.576l.648-.852a3.474,3.474,0,0,0-2.148-.78c-1.452,0-2.34.828-2.34,1.932s1.008,1.584,1.884,1.92c.72.276,1.464.54,1.464,1.14,0,.5-.372.888-1.164.888a2.925,2.925,0,0,1-1.872-.756l-.648.888A4.06,4.06,0,0,0,29.028,14.156Zm5.928,0a4.223,4.223,0,0,0,1.3-.24L36,12.9a1.968,1.968,0,0,1-.708.156c-.684,0-.96-.408-.96-1.2V8.5h1.716V7.4H34.332V5.576H33.168L33.012,7.4l-1.02.072V8.5h.96V11.84C32.952,13.232,33.468,14.156,34.956,14.156ZM37.488,14h1.368V9.884c.42-1.044,1.068-1.416,1.608-1.416a1.953,1.953,0,0,1,.66.108l.252-1.2a1.642,1.642,0,0,0-.744-.144A2.281,2.281,0,0,0,38.76,8.588h-.036L38.616,7.4H37.488ZM42.4,14h1.368V7.4H42.4Zm.684-7.836a.819.819,0,1,0,0-1.632.818.818,0,1,0,0,1.632Zm4.32,7.992a3.281,3.281,0,0,0,2.1-.912h.036l.12.756h1.128V10.028c0-1.752-.756-2.8-2.4-2.8A5.055,5.055,0,0,0,45.72,8.1l.516.936a3.63,3.63,0,0,1,1.908-.672c.972,0,1.248.672,1.26,1.44-2.748.3-3.948,1.032-3.948,2.448A1.823,1.823,0,0,0,47.4,14.156Zm.42-1.092c-.588,0-1.032-.264-1.032-.912,0-.744.66-1.236,2.616-1.476V12.3A2.327,2.327,0,0,1,47.82,13.064Zm6.288,1.092a2.217,2.217,0,0,0,.744-.108L54.672,13a.959.959,0,0,1-.228.024c-.168,0-.336-.132-.336-.5V4.436H52.74v8.016C52.74,13.52,53.112,14.156,54.108,14.156ZM60.936,14h1.392V6.332h2.6V5.168H58.344V6.332h2.592Zm7.212.156a4,4,0,0,0,2.232-.7l-.48-.876a2.8,2.8,0,0,1-1.572.492,1.993,1.993,0,0,1-2.04-2.016h4.284a3.567,3.567,0,0,0,.06-.7c0-1.872-.936-3.132-2.688-3.132a3.2,3.2,0,0,0-3.012,3.48A3.17,3.17,0,0,0,68.148,14.156Zm-1.872-4.044a1.79,1.79,0,0,1,1.692-1.8c.96,0,1.476.66,1.476,1.8Zm8.592,4.044A3.216,3.216,0,0,0,77,13.34l-.564-.912a2.261,2.261,0,0,1-1.44.6c-1.1,0-1.86-.924-1.86-2.316s.792-2.34,1.9-2.34a1.729,1.729,0,0,1,1.188.516l.684-.9a2.834,2.834,0,0,0-1.932-.756,3.243,3.243,0,0,0-3.264,3.48A3.12,3.12,0,0,0,74.868,14.156ZM78.384,14h1.368V9.32a2.254,2.254,0,0,1,1.62-.9c.78,0,1.116.456,1.116,1.6V14h1.38V9.848c0-1.68-.624-2.616-2.028-2.616A3.071,3.071,0,0,0,79.7,8.276l.048-1.308V4.436H78.384Zm7.452,0H87.2V9.32a2.254,2.254,0,0,1,1.62-.9c.78,0,1.116.456,1.116,1.6V14h1.38V9.848c0-1.68-.624-2.616-2.028-2.616a3.145,3.145,0,0,0-2.184,1.08h-.036L86.964,7.4H85.836Zm10.128.156a3.17,3.17,0,0,0,3.108-3.444,3.128,3.128,0,1,0-6.216,0A3.17,3.17,0,0,0,95.964,14.156Zm0-1.128c-1.032,0-1.68-.924-1.68-2.316s.648-2.34,1.68-2.34,1.692.936,1.692,2.34S97.008,13.028,95.964,13.028Zm6.1,1.128a2.217,2.217,0,0,0,.744-.108L102.624,13a.959.959,0,0,1-.228.024c-.168,0-.336-.132-.336-.5V4.436h-1.368v8.016C100.692,13.52,101.064,14.156,102.06,14.156Zm4.848,0a3.17,3.17,0,0,0,3.108-3.444,3.128,3.128,0,1,0-6.216,0A3.17,3.17,0,0,0,106.908,14.156Zm0-1.128c-1.032,0-1.68-.924-1.68-2.316s.648-2.34,1.68-2.34,1.692.936,1.692,2.34S107.952,13.028,106.908,13.028Zm6.984,3.936c2.112,0,3.456-1.032,3.456-2.3,0-1.128-.816-1.608-2.376-1.608H113.76c-.84,0-1.1-.252-1.1-.648a.875.875,0,0,1,.36-.7,2.294,2.294,0,0,0,.924.2,2.255,2.255,0,0,0,2.472-2.268,1.784,1.784,0,0,0-.432-1.212h1.26V7.4H114.9a2.752,2.752,0,0,0-.96-.168,2.38,2.38,0,0,0-2.556,2.376,2.259,2.259,0,0,0,.864,1.752v.048a1.629,1.629,0,0,0-.732,1.224,1.213,1.213,0,0,0,.6,1.092v.06a1.744,1.744,0,0,0-.96,1.44C111.156,16.376,112.308,16.964,113.892,16.964Zm.048-5.94a1.287,1.287,0,0,1-1.248-1.416,1.257,1.257,0,1,1,2.5,0A1.287,1.287,0,0,1,113.94,11.024Zm.156,5.028c-1.092,0-1.764-.384-1.764-1.032a1.187,1.187,0,0,1,.564-.96,4.2,4.2,0,0,0,.888.1h1c.8,0,1.236.168,1.236.72C116.016,15.488,115.248,16.052,114.1,16.052Zm9.96-8.652h-1.344l-1.056,3.4-.516,1.86h-.06c-.2-.612-.408-1.272-.6-1.86l-1.224-3.4H117.84l2.616,6.552-.132.456c-.24.708-.66,1.236-1.38,1.236a1.788,1.788,0,0,1-.48-.1l-.264,1.08a2.347,2.347,0,0,0,.828.132c1.392,0,2.088-.948,2.6-2.364ZM2.556,21.284H3.888c1.284,0,1.98.372,1.98,1.44s-.7,1.6-1.98,1.6H2.556ZM7.56,29,5.4,25.256a2.459,2.459,0,0,0,1.848-2.532c0-1.908-1.368-2.556-3.192-2.556H1.164V29H2.556V25.436H3.984l2,3.564Zm3.96.156a4,4,0,0,0,2.232-.7l-.48-.876a2.8,2.8,0,0,1-1.572.492A1.993,1.993,0,0,1,9.66,26.06h4.284a3.567,3.567,0,0,0,.06-.7c0-1.872-.936-3.132-2.688-3.132A3.2,3.2,0,0,0,8.3,25.712,3.17,3.17,0,0,0,11.52,29.156ZM9.648,25.112a1.79,1.79,0,0,1,1.692-1.8c.96,0,1.476.66,1.476,1.8Zm7.692,4.044c1.632,0,2.508-.9,2.508-2,0-1.248-1.02-1.656-1.944-2-.72-.264-1.4-.48-1.4-1.044,0-.456.336-.816,1.056-.816a2.47,2.47,0,0,1,1.476.576l.648-.852a3.474,3.474,0,0,0-2.148-.78c-1.452,0-2.34.828-2.34,1.932s1.008,1.584,1.884,1.92c.72.276,1.464.54,1.464,1.14,0,.5-.372.888-1.164.888a2.925,2.925,0,0,1-1.872-.756l-.648.888A4.06,4.06,0,0,0,17.34,29.156Zm6.72,0a4,4,0,0,0,2.232-.7l-.48-.876a2.8,2.8,0,0,1-1.572.492A1.993,1.993,0,0,1,22.2,26.06h4.284a3.567,3.567,0,0,0,.06-.7c0-1.872-.936-3.132-2.688-3.132a3.2,3.2,0,0,0-3.012,3.48A3.17,3.17,0,0,0,24.06,29.156Zm-1.872-4.044a1.79,1.79,0,0,1,1.692-1.8c.96,0,1.476.66,1.476,1.8Zm7.284,4.044a3.281,3.281,0,0,0,2.1-.912h.036l.12.756h1.128V25.028c0-1.752-.756-2.8-2.4-2.8a5.055,5.055,0,0,0-2.664.864l.516.936a3.629,3.629,0,0,1,1.908-.672c.972,0,1.248.672,1.26,1.44-2.748.3-3.948,1.032-3.948,2.448A1.823,1.823,0,0,0,29.472,29.156Zm.42-1.092c-.588,0-1.032-.264-1.032-.912,0-.744.66-1.236,2.616-1.476V27.3A2.327,2.327,0,0,1,29.892,28.064Zm4.92.936H36.18V24.884c.42-1.044,1.068-1.416,1.608-1.416a1.953,1.953,0,0,1,.66.108l.252-1.2a1.642,1.642,0,0,0-.744-.144,2.281,2.281,0,0,0-1.872,1.356h-.036L35.94,22.4H34.812Zm7.464.156a3.216,3.216,0,0,0,2.136-.816l-.564-.912a2.261,2.261,0,0,1-1.44.6c-1.1,0-1.86-.924-1.86-2.316s.792-2.34,1.9-2.34a1.729,1.729,0,0,1,1.188.516l.684-.9a2.834,2.834,0,0,0-1.932-.756,3.243,3.243,0,0,0-3.264,3.48A3.12,3.12,0,0,0,42.276,29.156ZM45.792,29H47.16V24.32a2.254,2.254,0,0,1,1.62-.9c.78,0,1.116.456,1.116,1.6V29h1.38V24.848c0-1.68-.624-2.616-2.028-2.616a3.071,3.071,0,0,0-2.136,1.044l.048-1.308V19.436H45.792Zm10.272,0h1.392V20.168H56.064Zm3.588,0H61.02V24.32a2.254,2.254,0,0,1,1.62-.9c.78,0,1.116.456,1.116,1.6V29h1.38V24.848c0-1.68-.624-2.616-2.028-2.616a3.145,3.145,0,0,0-2.184,1.08h-.036L60.78,22.4H59.652Zm9.276.156c1.632,0,2.508-.9,2.508-2,0-1.248-1.02-1.656-1.944-2-.72-.264-1.4-.48-1.4-1.044,0-.456.336-.816,1.056-.816a2.47,2.47,0,0,1,1.476.576l.648-.852a3.474,3.474,0,0,0-2.148-.78c-1.452,0-2.34.828-2.34,1.932s1.008,1.584,1.884,1.92c.72.276,1.464.54,1.464,1.14,0,.5-.372.888-1.164.888a2.925,2.925,0,0,1-1.872-.756l-.648.888A4.06,4.06,0,0,0,68.928,29.156Zm5.928,0a4.223,4.223,0,0,0,1.3-.24L75.9,27.9a1.968,1.968,0,0,1-.708.156c-.684,0-.96-.408-.96-1.2V23.5h1.716V22.4H74.232V20.576H73.068L72.912,22.4l-1.02.072V23.5h.96V26.84C72.852,28.232,73.368,29.156,74.856,29.156ZM77.388,29h1.368V22.4H77.388Zm.684-7.836a.819.819,0,1,0,0-1.632.818.818,0,1,0,0,1.632Zm4.98,7.992a4.223,4.223,0,0,0,1.3-.24L84.1,27.9a1.968,1.968,0,0,1-.708.156c-.684,0-.96-.408-.96-1.2V23.5h1.716V22.4H82.428V20.576H81.264L81.108,22.4l-1.02.072V23.5h.96V26.84C81.048,28.232,81.564,29.156,83.052,29.156Zm4.464,0A2.767,2.767,0,0,0,89.676,28h.036l.108,1h1.128V22.4h-1.38v4.584c-.552.7-.972.984-1.584.984-.78,0-1.1-.444-1.1-1.584V22.4H85.5v4.152C85.5,28.232,86.112,29.156,87.516,29.156Zm7.728,0a4.223,4.223,0,0,0,1.3-.24l-.252-1.02a1.968,1.968,0,0,1-.708.156c-.684,0-.96-.408-.96-1.2V23.5h1.716V22.4H94.62V20.576H93.456L93.3,22.4l-1.02.072V23.5h.96V26.84C93.24,28.232,93.756,29.156,95.244,29.156Zm5.076,0a4,4,0,0,0,2.232-.7l-.48-.876a2.8,2.8,0,0,1-1.572.492,1.993,1.993,0,0,1-2.04-2.016h4.284a3.567,3.567,0,0,0,.06-.7c0-1.872-.936-3.132-2.688-3.132a3.2,3.2,0,0,0-3.012,3.48A3.17,3.17,0,0,0,100.32,29.156Zm-1.872-4.044a1.79,1.79,0,0,1,1.692-1.8c.96,0,1.476.66,1.476,1.8Z" transform="translate(233 4019)" fill="#6c6c6c"/>
    <g id="Group_16" data-name="Group 16" transform="translate(-53 -40)">
      <rect id="Rectangle_56" data-name="Rectangle 56" width="56" height="56" transform="translate(220 4033)" fill="#00abeb"/>
      <path id="Intersection_1" data-name="Intersection 1" d="M-51,56a41.733,41.733,0,0,1,3.3-16.348,41.851,41.851,0,0,1,9-13.35,41.841,41.841,0,0,1,13.35-9A41.728,41.728,0,0,1-9,14v14C-24.486,28.268-37,40.724-37,56Z" transform="translate(285 4033)" fill="#fff"/>
      <rect id="Rectangle_55" data-name="Rectangle 55" width="14" height="14" transform="translate(262 4075)" fill="#fff"/>
    </g>
  </g>
</svg>
